<?xml version="1.0" encoding="utf-8"?>
<!-- Generator: Adobe Illustrator 24.0.3, SVG Export Plug-In . SVG Version: 6.00 Build 0)  -->
<svg version="1.1" id="レイヤー_1" xmlns="http://www.w3.org/2000/svg" xmlns:xlink="http://www.w3.org/1999/xlink" x="0px"
	 y="0px" viewBox="0 0 1422.9 327.1" style="enable-background:new 0 0 1422.9 327.1;" xml:space="preserve">
<style type="text/css">
	.st0{fill:#6FDAC6;}
</style>
<g>
	<path class="st0" d="M1271.3,216.8c-8.1,22-15.4,43.4-24,64.3c-3.7,8.9-9.6,17-15.1,25.1c-4.6,6.8-11.9,8.7-19.9,8.9
		c-4.9,0.1-9.9,0.8-14.5,2.3c-29.6,9.9-59.7,14.4-89.6,2.9c-12-4.6-22.6-12.8-33.6-19.2c-11.9,6.1-24.8,13.6-38.5,19.6
		c-12.9,5.6-26.7,5.6-40.4,1.7c-17.6-5-29.4-17.6-30.3-36.1c-0.7-16.1,1.4-32.4,2.2-48.6c0.4-7,1.3-14,0.8-21
		c-0.8-14.2-10.2-19.2-21.7-10.8c-8.5,6.1-16.2,13.9-22.6,22.3c-7.6,10-14.1,20.9-19.7,32.2c-3.3,6.5-4.1,14.3-5.5,21.6
		c-1.1,5.8-1,11.7-2.1,17.5c-1.8,9.5-5.7,17.6-16.6,19.8c-11.2,2.3-20-0.5-25.1-12c-33.1,20.5-64.9,26-94.6-6.6
		c-16.3,14-35.1,23.5-57.1,24.3c-23.1,0.8-40.7-10.4-55.1-27.8c-7.7,6.4-15,13-22.7,18.8c-6.1,4.6-12.5,8.2-20.9,3.6
		c-2.5-1.4-6.9,0.5-10.4,1.3c-29.1,7.3-58.2,10.1-86.2-3.6c-9.4-4.6-17.6-11.5-27.1-17.9c-12.5,11.2-27.7,19.6-45.2,23.8
		c-12.3,2.9-24.5,2.4-36.4-2.1c-18.5-7-27.3-21.3-27.3-40.3c0.1-16.8,2.4-33.5,3.5-50.3c0.4-5.6,0.6-11.2-0.2-16.7
		c-1.6-10.7-8.6-14.6-18.1-9.5c-6.5,3.5-13.3,8.2-17.4,14.1c-11.2,15.9-21.4,32.7-31.4,49.5c-2,3.3-1.7,8-2.3,12.1
		c-1.4,9.1-1.9,18.4-4.3,27.2c-2.7,9.8-11.3,12.6-20.6,12.8c-8.9,0.2-15.2-4.1-18.2-12.3c-2.1-5.7-4.1-11.9-4.2-17.9
		c-0.8-34.2-1.6-68.4-1.1-102.5c0.2-18.5,13.3-29.3,30.5-28c10.3,0.8,14.8,4.5,15.5,15.1c0.7,10.2,0.1,20.6,0.1,30.9
		c0.9,0.3,1.9,0.5,2.8,0.8c1.7-2.2,3.4-4.5,5.1-6.7c10.8-14.6,23.1-27.4,39.5-35.8c33.8-17.2,68.3,3.6,67.6,41.4
		c-0.3,18.2-2.8,36.3-4.3,54.4c-0.2,3.1-0.6,6.2-0.3,9.2c0.8,9.8,7,15.5,15.8,11.7c11.1-4.8,21.1-12.1,31.2-19
		c1.6-1.1,1.2-5.7,1-8.6c-2.2-24.1,2.5-46.4,17.6-65.7c17.4-22.3,51.5-29.6,76.9-17.3c22.2,10.8,32.4,38.9,23.7,65.2
		c-6.1,18.4-12.7,26.6-37.6,46.8c9.4,6.8,26.3,6.9,43.6-1.7c13.4-6.7,25.9-15.4,38.6-23.1c-3.5-16.2-7.9-32.1-10.4-48.3
		c-8.2-51.9-4.4-102.8,14.7-152.1c6.2-16.1,15-30.7,28.9-41.6c22.2-17.4,50.3-11.4,63,13.9c13,25.9,13.4,53.6,9.2,81.4
		c-7.9,52.5-26.3,101.2-54.6,146.1c-4,6.4-3.1,10.4,1.4,15.3c10.1,11.2,24.6,14.2,39,6.5c8.6-4.6,16.7-10.2,24.5-16.1
		c1.9-1.4,2.6-5.8,2.3-8.7c-3-23.3-2.3-46.4,2-69.5c2-10.5,7.8-17.7,18.4-20.7c19.6-5.5,34,6,31.8,26.3c-1.7,16.1-4.9,32.1-6.5,48.3
		c-0.8,7.7-0.6,15.8,0.9,23.4c3.6,18,18.6,24.8,34.4,15.6c8.2-4.7,15.7-10.8,23.1-16.8c1.7-1.3,2.1-4.9,2.1-7.5
		c0.3-19.6,0-39.3,0.7-58.9c0.2-6.8,1.5-14.1,4.3-20.3c5.7-12.7,19.4-17.7,32.6-13.2c6.6,2.2,9,7.2,9.5,13.5
		c0.7,10.6,1.2,21.2,1.8,33.5c4.1-5.3,6.9-10.2,10.8-13.7c11.3-10.3,21.9-22.2,35-29.5c33.4-18.7,68.5,3.2,67.8,41.5
		c-0.2,14.2-2.4,28.5-3.5,42.7c-0.6,7-1.4,14-1.2,20.9c0.3,8.9,6.8,14.7,14.5,11.3c11.6-5,22.1-12.6,32.8-19.5c1.3-0.8,1-4.6,0.7-7
		c-2.3-20.1,0.8-39.1,10.5-56.9c13.8-25.2,39.7-37.4,68.1-32.2c33.2,6.1,49.8,36.2,39.1,70.5c-5.4,17.3-16.2,30.5-30.6,41.1
		c-2.2,1.7-4.4,3.4-6.6,5.1c-0.1,0.1,0,0.5,0,1.4c9.9,4.8,20.3,4.2,30.6,1.5c21.7-5.6,39.2-16.4,47.1-38.7
		c4.5-12.6,9.1-25.3,12.9-38.1c0.8-2.7-0.6-7.1-2.6-9.3c-12.2-13.6-13.9-38.3-3.1-53.1c12.6-17.1,36.6-15.1,47,4.6
		c3,5.8,4.7,12.7,5.1,19.2c0.5,8.4,4.6,11.7,12.1,11.8c8.7,0.1,17.4,0.1,26-0.8c30.8-3.1,48.4,19.2,38.1,48.7
		c-3.8,10.8-8.3,21.4-12.3,32.2c-1,2.6-1.7,5.3-2.3,8.1c-2.4,11,1.6,16.1,12.7,13.9c7.7-1.6,15.1-5.5,22-9.4
		c5.8-3.3,10.5-8.4,16-12.2c8.8-6,18.7-5.5,25.7,0.7c6.4,5.7,8.7,14.9,2.3,23.7c-7,9.7-15.8,19.1-25.6,25.8
		c-19.1,13.1-40.9,17.7-64.1,14c-22.9-3.7-35.4-18.7-32.9-41.8c1.1-10.1,5.1-19.9,7.9-29.9c0.7-2.4,2.1-4.6,3.2-6.9
		c8.2-18.5,5.3-24-14.3-27.2C1281.7,219,1276.3,217.8,1271.3,216.8z M657,214.7c2.2-2.3,2.9-2.8,3.2-3.4
		c20.7-37.5,31-77.7,30.4-120.6c-0.1-8-1.7-16.2-4.1-23.8c-2.2-7.1-8.8-8.4-13.7-2.9c-3.8,4.2-7,9.6-8.8,15
		C649.2,123,653.6,167.9,657,214.7z M1102.7,261.7c15.3-7.3,25-19,29.6-35.2c2-7.2,0.8-13.7-6.1-17.5c-6.8-3.7-12.4,0-17.3,4.6
		C1097.5,224.3,1094.5,246.8,1102.7,261.7z M510.2,262c15.5-8.2,26.1-19.8,29.7-36.8c1.4-6.4,0.4-12.6-6-16.1
		c-6.8-3.7-12.4-0.4-17.3,4.3C505.1,224.3,502,246.1,510.2,262z"/>
	<path class="st0" d="M254.7,185.6c-0.9,34.1-6.2,64.5-25.2,90.8c-27.6,38.2-66.4,52.3-112.2,50c-19.8-1-38.9-5.3-56.6-14.3
		c-30.3-15.5-47.6-41-53.9-74C-5.3,175.3,11.3,120.7,56,75.5C80.2,50.9,110.9,40,145.5,43c9.8,0.8,19.7,4.1,28.8,8
		c9.2,3.9,14.2,12,15.4,22.5c0.3,2.9,2.8,6.9,5.3,7.9c36.1,15.4,52.7,44.4,57.8,81.5C253.9,171.2,254.2,179.6,254.7,185.6z
		 M154.7,91.8c-26.4,1-49.4,8-66.9,26.8c-30.8,33-39.1,72.6-27.9,115.5c9.6,36.6,42.8,55.6,79.3,47c31.7-7.5,53.2-27.4,61.9-58.9
		c10.6-38.2-0.7-70.2-31.7-94.9C158.1,118.3,151.6,108,154.7,91.8z"/>
	<path class="st0" d="M779.3,87.2c14.2,0,24,9.5,24.1,23.5c0.2,17.8-13.5,32.4-30.5,32.5c-15,0.1-27.1-11-27.2-25.1
		C745.5,102.1,761.6,87.2,779.3,87.2z"/>
</g>
</svg>
