<?xml version="1.0" encoding="utf-8"?>
<!-- Generator: Adobe Illustrator 24.0.3, SVG Export Plug-In . SVG Version: 6.00 Build 0)  -->
<svg version="1.1" id="レイヤー_1" xmlns="http://www.w3.org/2000/svg" xmlns:xlink="http://www.w3.org/1999/xlink" x="0px"
	 y="0px" viewBox="0 0 61 50" style="enable-background:new 0 0 61 50;" xml:space="preserve">
<style type="text/css">
	.st0{fill:none;stroke:#03DAC6;stroke-width:2;stroke-linecap:round;stroke-linejoin:round;stroke-miterlimit:10;}
</style>
<title>icon</title>
<path class="st0" d="M33.3,33.2c0,0,18.1-8.4,18.4-31.8c0,0-22.3,0.5-28.3,32c0,0,0,3.3,6,4s3.3,8,3.3,8s11-6.4,10-13.4
	S30.1,16.3,24.1,18c-6,1.7-12.1,12.4-11,12.4s14.4-0.3,16.4,3s-4.4,13.7-6,13.7s-1.7-5.7-7.4,0s4.4-6.4,1-6.4s-4.7,1-2.3-2.3
	s5.4-4.4,5.4-4.4"/>
</svg>
