<?xml version="1.0" encoding="utf-8"?>
<!-- Generator: Adobe Illustrator 24.0.3, SVG Export Plug-In . SVG Version: 6.00 Build 0)  -->
<svg version="1.1" id="レイヤー_1" xmlns="http://www.w3.org/2000/svg" xmlns:xlink="http://www.w3.org/1999/xlink" x="0px"
	 y="0px" viewBox="0 0 300 300" style="enable-background:new 0 0 300 300;" xml:space="preserve">
<style type="text/css">
	.st0{fill:none;stroke:#03DAC6;stroke-width:10;stroke-linecap:round;stroke-linejoin:round;stroke-miterlimit:10;}
</style>
<path class="st0" d="M154.2,188.3c0,0,77.6-35.9,79.1-136.6c0,0-95.6,2.2-121.5,137.3c0,0,0,14.4,25.9,17.3
	c25.9,2.9,14.4,34.5,14.4,34.5s47.4-27.3,43.1-57.5s-54.6-67.6-80.5-60.4c-25.9,7.2-51.8,53.2-47.4,53.2s61.8-1.4,70.4,12.9
	c8.6,14.4-18.7,58.9-25.9,58.9s-7.2-24.4-31.6,0s18.7-27.3,4.3-27.3s-20.1,4.3-10.1-10.1s23-18.7,23-18.7"/>
</svg>
