<?xml version="1.0" encoding="utf-8"?>
<!-- Generator: Adobe Illustrator 24.0.3, SVG Export Plug-In . SVG Version: 6.00 Build 0)  -->
<svg version="1.1" id="レイヤー_1" xmlns="http://www.w3.org/2000/svg" xmlns:xlink="http://www.w3.org/1999/xlink" x="0px"
	 y="0px" viewBox="0 0 300 300" style="enable-background:new 0 0 300 300;" xml:space="preserve">
<style type="text/css">
	.st0{fill:none;stroke:#03DAC6;stroke-width:10;stroke-linecap:round;stroke-linejoin:round;stroke-miterlimit:10;}
</style>
<path class="st0" d="M198.7,177.6c12.6-13.1,20.3-30.7,20.3-50.6c0-40.2-32.5-72.7-72.7-72.7S73.6,86.8,73.6,127
	c0,13.5,3.6,26.6,10.4,37.5c0,0,20.3,28,37,18.5s11.7-57.3-7.2-57.3s-5,28.4,28.4,26.2c33.4-2.3,47.4-9.5,42.9-21.2
	c-5-11.7-35.7,5-31.2,31.2c1.8,9.5,5.4,19.4,14,24.4c6.3,3.6,14,3.2,19.9,7.2c1.8,1.4,3.6,3.6,3.2,5.9c-0.5,2.3-2.3,4.1-4.1,5
	c-2.3,0.9-4.5,0.9-6.8,0.9c-19.9,0.5-40.2,0-60.1-0.5c-3.2,0-6.8,0-9.5,1.4s-5,4.5-4.5,7.7c0.5,2.3,2.7,3.6,5,4.5s4.5,0.9,6.8,0.9
	c15.8,0,32.1,1.8,47.4,5c3.2,0.5,7.2,1.8,7.7,5.4c0.9,3.2-2.3,6.3-5.4,7.7c-7.2,3.6-15.8,3.2-23.5,3.2c-4.1,0-20.3-0.9-21.2,5
	c0,1.4,0.9,2.7,1.8,3.6c9.5,9.9,24.4,7.7,36.1,3.6"/>
</svg>
