<?xml version="1.0" encoding="utf-8"?>
<!-- Generator: Adobe Illustrator 24.0.3, SVG Export Plug-In . SVG Version: 6.00 Build 0)  -->
<svg version="1.1" id="レイヤー_1" xmlns="http://www.w3.org/2000/svg" xmlns:xlink="http://www.w3.org/1999/xlink" x="0px"
	 y="0px" viewBox="0 0 300 300" style="enable-background:new 0 0 300 300;" xml:space="preserve">
<style type="text/css">
	.st0{fill:none;stroke:#03DAC6;stroke-width:10;stroke-linecap:round;stroke-linejoin:round;stroke-miterlimit:10;}
</style>
<path class="st0" d="M257,118c0,0-95-35-106-34S46,112,43,118s95,45,107,45c12,0,50-21,59-20c11.1,1.2,11,17,9.3,25.2
	c-4.8,22.3-26.8,31.4-47.4,33.8c-22.8,2.7-50.2,1.4-71.1-9.4C94,189.5,85.3,179.3,78,183c-8.6,4.3-15.4,12.6-21.1,20.2
	c-4.4,5.7-14.1,16-8.9,23.6c2.5,3.6,7.2,5.2,11.5,4.5s8-3.5,10.6-7c9.5-13.2,8.9-33.1,8.8-48.5c-0.1-10-1.6-20.8,4.7-29.3
	c13.6-18.4,43.6-25.6,64.1-31.6c0.8-0.2,1.5-0.5,2.3-0.7"/>
</svg>
