<?xml version="1.0" encoding="utf-8"?>
<!-- Generator: Adobe Illustrator 24.0.3, SVG Export Plug-In . SVG Version: 6.00 Build 0)  -->
<svg version="1.1" id="レイヤー_1" xmlns="http://www.w3.org/2000/svg" xmlns:xlink="http://www.w3.org/1999/xlink" x="0px"
	 y="0px" viewBox="0 0 485 189" style="enable-background:new 0 0 485 189;" xml:space="preserve">
<style type="text/css">
	.st0{fill:#E7E6E8;}
	.st1{fill:#393D3E;stroke:#393D3E;stroke-miterlimit:10;}
	.st2{fill:#393D3E;}
	.st3{fill:#FFFFFF;}
	.st4{font-family:'KozGoPr6N-Regular-83pv-RKSJ-H';}
	.st5{font-size:13.4867px;}
	.st6{font-size:12.4866px;}
	.st7{fill:#FF9100;}
	.st8{fill:#FFF973;stroke:#FF9100;stroke-width:0.75;stroke-miterlimit:10;}
	.st9{fill:none;stroke:#FF9100;stroke-width:0.75;stroke-miterlimit:10;}
	.st10{font-size:12px;}
	.st11{fill:none;stroke:#FF9100;stroke-miterlimit:10;}
	.st12{font-size:15.0625px;}
</style>
<g>
	<rect x="-7" y="-144" class="st0" width="503" height="342"/>
</g>
<path class="st1" d="M189.3,177c14.6,0,117,0,117,0l15.2-24.3H496l-0.5,36.8H-7l1-37.5h160.1h20.3L189.3,177z"/>
<polygon class="st2" points="186.5,151.5 199.8,177 297,177 310.5,151.5 "/>
<text transform="matrix(1 0 0 1 46.5664 176.1309)" class="st3 st4 st5">背景ボード</text>
<text transform="matrix(1 0 0 1 221.5664 169.2197)" class="st3 st4 st6">アイコン</text>
<circle class="st7" cx="45" cy="70" r="41"/>
<line class="st8" x1="86.4" y1="97.9" x2="168.1" y2="123.7"/>
<line class="st9" x1="91.4" y1="82" x2="173.1" y2="107.8"/>
<text transform="matrix(1 0 0 1 32.244 74.2887)" class="st4 st10">光源</text>
<polyline class="st11" points="173,102.5 178,108.8 170.5,111.2 "/>
<polyline class="st11" points="169,119.5 174,125.8 166.5,128.2 "/>
<rect x="170.5" y="145.5" class="st11" width="155" height="38"/>
<text transform="matrix(1 0 0 1 186.501 135.7354)" class="st7 st4 st12">記事は凹型タイル</text>
</svg>
