<?xml version="1.0" encoding="utf-8"?>
<!-- Generator: Adobe Illustrator 24.0.3, SVG Export Plug-In . SVG Version: 6.00 Build 0)  -->
<svg version="1.1" id="レイヤー_1" xmlns="http://www.w3.org/2000/svg" xmlns:xlink="http://www.w3.org/1999/xlink" x="0px"
	 y="0px" viewBox="0 0 485 189" style="enable-background:new 0 0 485 189;" xml:space="preserve">
<style type="text/css">
	.st0{fill:#E7E6E8;}
	.st1{fill:#393D3E;stroke:#393D3E;stroke-miterlimit:10;}
	.st2{font-family:'YuGo-Medium-83pv-RKSJ-H';}
	.st3{font-size:12px;}
	.st4{fill:#393D3E;}
	.st5{fill:none;stroke:#FF9100;stroke-width:1;stroke-miterlimit:9.9997;}
	.st6{fill:none;stroke:#FF9100;stroke-width:1;stroke-miterlimit:10;}
	.st7{fill:#FFFFFF;}
	.st8{font-family:'KozGoPr6N-Regular-83pv-RKSJ-H';}
	.st9{font-size:13.4867px;}
	.st10{font-size:12.4866px;}
	.st11{fill:none;stroke:#FF9100;stroke-miterlimit:10;}
	.st12{fill:#FF9100;}
	.st13{fill:none;stroke:#FF9100;stroke-width:0.75;stroke-miterlimit:10;}
</style>
<g>
	<rect x="-7" y="-144" class="st0" width="503" height="342"/>
</g>
<path class="st1" d="M189.3,177c14.6,0,117,0,117,0l15.2-24.3H496l-0.5,36.8H-7l1-37.5h160.1h20.3L189.3,177z"/>
<text transform="matrix(1 0 0 1 192.1763 106.1562)" class="st2 st3">影は黒くなるのが自然？</text>
<polygon class="st4" points="186.5,151.5 199.8,177 297,177 310.5,151.5 "/>
<ellipse transform="matrix(0.8382 -0.5453 0.5453 0.8382 -62.1916 132.1356)" class="st5" cx="191.6" cy="170.9" rx="10.4" ry="16.4"/>
<ellipse transform="matrix(0.5715 -0.8206 0.8206 0.5715 -9.358 323.8717)" class="st6" cx="305.4" cy="170.9" rx="16.4" ry="10.4"/>
<text transform="matrix(1 0 0 1 46.5664 176.1309)" class="st7 st8 st9">背景ボード</text>
<text transform="matrix(1 0 0 1 221.5664 169.2197)" class="st7 st8 st10">アイコン</text>
<line class="st11" x1="188.4" y1="167.5" x2="231.5" y2="113"/>
<line class="st11" x1="310.5" y1="167.5" x2="267.4" y2="113"/>
<circle class="st12" cx="45" cy="70" r="41"/>
<line class="st13" x1="86.4" y1="97.9" x2="168.1" y2="123.7"/>
<line class="st13" x1="91.4" y1="82" x2="173.1" y2="107.8"/>
<text transform="matrix(1 0 0 1 32.244 74.2887)" class="st8 st3">光源</text>
<polyline class="st11" points="173,102.5 178,108.8 170.5,111.2 "/>
<polyline class="st11" points="169,119.5 174,125.8 166.5,128.2 "/>
</svg>
