<?xml version="1.0" encoding="utf-8"?>
<!-- Generator: Adobe Illustrator 24.0.3, SVG Export Plug-In . SVG Version: 6.00 Build 0)  -->
<svg version="1.1" id="レイヤー_1" xmlns="http://www.w3.org/2000/svg" xmlns:xlink="http://www.w3.org/1999/xlink" x="0px"
	 y="0px" viewBox="0 0 533 250" style="enable-background:new 0 0 533 250;" xml:space="preserve">
<style type="text/css">
	.st0{fill:#03DAC6;}
	.st1{fill:none;stroke:#03DAC6;stroke-width:8;stroke-linecap:round;stroke-linejoin:round;stroke-miterlimit:10;}
</style>
<title>404</title>
<g>
	<path class="st0" d="M24.9,22.4c0.2,0,0.2,0,0.2,0.2v103.1c0,5.5,1.7,9.6,5.1,12.1c2.4,2,5.3,3,8.4,3h13.5V22.6
		c0-0.2,0.1-0.2,0.2-0.2h24.9c0.1,0,0.2,0,0.2,0.2v211.1c0,0.1-0.1,0.2-0.2,0.2H52.4c-0.1,0-0.2-0.1-0.2-0.2v-67.6l-0.2,0.1H41.7
		c-10.9,0-19.6-2.5-25.9-7.7c-3.3-2.3-6.4-5.3-9.2-9.4C2.2,142.3,0,135.3,0,128.2V22.6c0-0.2,0-0.2,0.2-0.2H24.9z"/>
	<path class="st0" d="M159.8,31.2c7.3,7.7,11,17.1,11,28v137.8c0,13.2-5.2,23.9-15.6,32c-7,5.2-14.7,7.7-23,7.7h-0.4
		c-9.4,0-17.8-3.2-25.4-9.6c-4.2-4.1-7-7.6-8.4-10.6c-3.2-5.5-4.8-12.5-4.8-20.8V60.8c0-8.8,1.7-15.7,4.9-21
		c1.1-2.6,3.6-5.9,7.5-9.9c4.8-4.1,9.3-6.8,13.3-8c4.5-1.6,8.9-2.4,13.2-2.4C142.4,19.4,151.7,23.4,159.8,31.2z M118.5,197.3
		c0.1,6.6,3,11,8.9,13.4c1.5,0.5,2.9,0.8,4.3,0.8h0.8c4.4,0,8.1-2.2,11.1-6.5c1.3-2.2,2-4.6,2-7.3V58.4c0-5.2-2.4-9.3-7.3-12.1
		c-2-1-4.1-1.6-6.3-1.6c-5.3,0-9.4,2.6-12.3,7.8c-0.8,1.9-1.3,4.1-1.3,6.7V197.3z"/>
	<path class="st0" d="M211.4,22.4c0.2,0,0.2,0,0.2,0.2v103.1c0,5.5,1.7,9.6,5.1,12.1c2.4,2,5.3,3,8.4,3h13.5V22.6
		c0-0.2,0.1-0.2,0.2-0.2h24.9c0.1,0,0.2,0,0.2,0.2v211.1c0,0.1-0.1,0.2-0.2,0.2h-24.9c-0.1,0-0.2-0.1-0.2-0.2v-67.6l-0.2,0.1h-10.3
		c-10.9,0-19.6-2.5-25.9-7.7c-3.3-2.3-6.4-5.3-9.2-9.4c-4.4-6.9-6.6-13.9-6.6-20.9V22.6c0-0.2,0-0.2,0.2-0.2H211.4z"/>
</g>
<path class="st1" d="M438.7,226.5c0,0-101.3,8.3-129.1-11.1C281.8,196,324.8,121,329,103s9.7-63.8,34.7-73.5
	c25-9.7,43.1,2.7,44.4,23.6s-1.4,43.1-9.7,37.5c-8.3-5.6-11.1-69.3,22.2-68c45.7,1.9,67.2,64.1,44.8,99.2
	c-6.5,10.1-16.8,18.7-28.8,19.4c-14.6,1-27.1-9.3-38.6-18.1c-11.5-8.9-26.1-17.4-39.9-12.7c-4.5,1.5-8.6,4.5-10.6,8.8
	c-5.3,11.6,8.9,24.3,21.6,23.2c12.7-1.1,22.9-10.5,32.6-18.8s21.4-16.6,34-15c12.5,1.6,22.1,13.3,24.4,25.8
	c2.3,12.4-1.3,25.2-6.9,36.5c-4.6,9.3-10.6,18.1-19.3,23.6c-20.8,12.9-47.7,2.6-72.2,4.3c12.2-9.9,24.3-19.9,36.5-29.7
	c4-3.2,8-6.6,9.8-11.4c1.7-4.8,0.2-11.2-4.6-12.8c-6.1-2.1-12.1,5.2-11.4,11.6c0.7,6.4,5.6,11.5,10.3,16.1
	c8.4,8.3,16.9,16.6,25.8,24.4c19.1,16.9,44.7,32.2,68.8,24c6.4-2.2,12.6-6.4,15.1-12.7c2.5-6.7,0.4-14.4-2-21.2
	c-9.4-26-36-89.3-69.8-90.8c-30.5-1.4-23.6,16.7-48.6,8.3s-29.1-8.3-40.2-4.2s-22.2,23.6-19.4,36c2.7,12.5,20.8,47.1,20.8,47.1"/>
</svg>
