<?xml version="1.0" encoding="utf-8"?>
<!-- Generator: Adobe Illustrator 24.0.3, SVG Export Plug-In . SVG Version: 6.00 Build 0)  -->
<svg version="1.1" id="レイヤー_1" xmlns="http://www.w3.org/2000/svg" xmlns:xlink="http://www.w3.org/1999/xlink" x="0px"
	 y="0px" viewBox="0 0 300 300" style="enable-background:new 0 0 300 300;" xml:space="preserve">
<style type="text/css">
	.st0{fill:none;stroke:#03DAC6;stroke-width:8;stroke-linecap:round;stroke-linejoin:round;stroke-miterlimit:10;}
</style>
<path class="st0" d="M180.9,250.2c0,0-99.5,8.2-126.8-10.9c-27.3-19.1,15-92.7,19.1-110.4s9.5-62.7,34.1-72.2s42.3,2.7,43.6,23.2
	s-1.4,42.3-9.5,36.8c-8.2-5.5-10.9-68.1,21.8-66.8c44.9,1.9,66,63,44,97.4c-6.4,9.9-16.5,18.4-28.3,19.1c-14.3,1-26.6-9.1-37.9-17.8
	c-11.3-8.7-25.6-17.1-39.2-12.5c-4.4,1.5-8.4,4.4-10.4,8.6c-5.2,11.4,8.7,23.9,21.2,22.8c12.5-1.1,22.5-10.3,32-18.5
	c9.5-8.2,21-16.3,33.4-14.7c12.3,1.6,21.7,13.1,24,25.3c2.3,12.2-1.3,24.8-6.8,35.9c-4.5,9.1-10.4,17.8-19,23.2
	c-20.4,12.7-46.9,2.6-70.9,4.2c12-9.7,23.9-19.5,35.9-29.2c3.9-3.1,7.9-6.5,9.6-11.2c1.7-4.7,0.2-11-4.5-12.6
	c-6-2.1-11.9,5.1-11.2,11.4c0.7,6.3,5.5,11.3,10.1,15.8c8.3,8.2,16.6,16.3,25.3,24c18.8,16.6,43.9,31.6,67.6,23.6
	c6.3-2.2,12.4-6.3,14.8-12.5c2.5-6.6,0.4-14.1-2-20.8c-9.2-25.5-35.4-87.7-68.6-89.2c-30-1.4-23.2,16.4-47.7,8.2s-28.6-8.2-39.5-4.1
	c-10.9,4.1-21.8,23.2-19.1,35.4c2.7,12.3,20.4,46.3,20.4,46.3"/>
</svg>
